<svg id="Layer_1" data-name="Layer 1" xmlns="http://www.w3.org/2000/svg" viewBox="0 0 100 100"><defs><style>.cls-1{fill:#5bba46;}</style></defs><title>Artboard 25</title><path class="cls-1" d="M90,25.83,50.91,3.24a1.82,1.82,0,0,0-1.82,0L10,25.83a1.82,1.82,0,0,0-.91,1.58V72.59A1.82,1.82,0,0,0,10,74.17L49.09,96.76a1.82,1.82,0,0,0,1.82,0L90,74.17a1.82,1.82,0,0,0,.91-1.58V27.41A1.82,1.82,0,0,0,90,25.83ZM87.31,71.54,75,78.64V71.92a1.46,1.46,0,0,0-.73-1.26L55.68,59.92l8.16-4.71A1.46,1.46,0,0,0,64.56,54V38.82a1.46,1.46,0,0,0-.73-1.26L50.73,30a1.46,1.46,0,0,0-1.46,0L36.16,37.56a1.46,1.46,0,0,0-.73,1.26V54a1.46,1.46,0,0,0,.73,1.26l8.16,4.71L25.73,70.66A1.46,1.46,0,0,0,25,71.92v6.72l-12.31-7.1V28.46L50,6.92,87.31,28.46Z"/></svg>