<?xml version="1.0" encoding="utf-8"?>
<!-- Generator: Adobe Illustrator 23.0.3, SVG Export Plug-In . SVG Version: 6.00 Build 0)  -->
<svg version="1.1" id="Layer_1" xmlns="http://www.w3.org/2000/svg" xmlns:xlink="http://www.w3.org/1999/xlink" x="0px" y="0px"
	 viewBox="0 0 87.8 63.1" style="enable-background:new 0 0 87.8 63.1;" xml:space="preserve">
<style type="text/css">
	.st0{fill:#5CBA47;}
	.st1{fill:#5BB947;}
</style>
<title>Artboard 1</title>
<g id="nu-logo-min-green">
	<g id="Group">
		<g id="Vector">
			<g transform="translate(2587 -319)">
				<path id="path1_fill" class="st0" d="M40.1,30.2v1.4v4.2c0,0.3,0,0.6,0,0.9v0.2c0.1,2.1,0.4,3.8,0.9,5.4l6.7-6.9
					c0-0.3,0-0.7,0-1v-3.7v-2c0-8.9-4.7-14.4-12.2-14.4c-5.4,0-9.4,2.3-12.7,5.8v-4.5l-7.1,7.3v26.4h7.7V26.6c3-3.7,6.4-5.5,9.5-5.5
					C38.3,21.1,40.1,24.6,40.1,30.2z"/>
			</g>
		</g>
		<g>
			<g transform="translate(2605.61 -318.057)">
				<path id="path2_fill" class="st0" d="M64.4,23.4v11.1l0,0v3.9c-2.8,3.4-6.3,4.9-9.4,4.9c-3.4,0-5.4-1.4-6.4-3.8l-5.9,6
					c0.3,0.4,0.6,0.9,1,1.3c2.1,2.2,5.3,3.5,8.7,3.5c5.1,0,8.9-2,12-5v3.9h1h6.7V15.5L64.4,23.4z"/>
			</g>
		</g>
	</g>
</g>
<g>
	<path class="st1" d="M39.3,29.2v1.7l0,5.1c0,0.4,0,0.7,0,1v0.3h0c0.1,2.5,0.5,4.6,1.1,6.4l8.1-8.3c0-0.4,0-0.8,0-1.2l0-4.5v-2.5
		c0-10.7-5.6-17.3-14.7-17.3c-6.5,0-11.4,2.7-15.3,6.9l0-5.5l-8.6,8.8v31.7h9.3v-27c3.6-4.4,7.8-6.5,11.5-6.5
		C37.1,18.2,39.3,22.4,39.3,29.2"/>
	<path class="st1" d="M68.6,21v13.4h0V39c-3.4,4-7.6,5.9-11.4,5.9c-4.2,0-6.6-1.7-7.8-4.6l-7.1,7.3c0.4,0.5,0.8,1,1.2,1.5
		c2.6,2.6,6.4,4.1,10.5,4.1c6.2,0,10.8-2.4,14.5-5.9V52h1.2h8.1V11.5L68.6,21z"/>
</g>
</svg>
